<?xml version="1.0" encoding="UTF-8"?>
<svg id="Layer_1" data-name="Layer 1" xmlns="http://www.w3.org/2000/svg" xmlns:xlink="http://www.w3.org/1999/xlink" viewBox="0 0 60 60">
  <defs>
    <style>
      .cls-1 {
        fill: rgba(19, 19, 19, .1);
      }

      .cls-2 {
        clip-path: url(#clippath);
      }

      .cls-3 {
        fill: none;
      }
    </style>
    <clipPath id="clippath">
      <rect class="cls-3" x="18" y="18" width="24" height="24"/>
    </clipPath>
  </defs>
  <circle class="cls-1" cx="30" cy="30" r="30"/>
  <g class="cls-2">
    <g>
      <path d="m42,29.36c0-3.1-1.21-6.02-3.4-8.21-.14-.14-.36-.14-.5,0l-12.25,12.25c-.91-.48-1.74-.34-2.7-.17-.43-1.56-1.52-2.17-1.58-2.2-.17-.09-.38-.03-.48.14-.09.17-.03.38.14.48.01,0,.75.42,1.14,1.49-1.13-.28-2.34.11-3.15.94-1.11-4.05.23-10.14,5.4-10.13,2.3,0,4.34,1.52,5.09,3.67.06.18.27.28.45.21.18-.06.28-.26.21-.45-.44-1.26-1.26-2.35-2.37-3.1.1-.52.31-1.02.62-1.45l.46-.64c.44-.62-.24-1.48-.95-1.16l-1.1.5c-.02-.94.22-1.67.79-2.42.17-.24.16-.56-.03-.79-.19-.23-.5-.3-.77-.18-.98.45-1.93.85-2.45,1.87-.52-1.01-1.48-1.42-2.45-1.87-.27-.12-.58-.05-.77.18-.19.23-.2.55-.03.79.57.75.81,1.47.79,2.42l-1.1-.5c-.69-.32-1.4.52-.95,1.16l.46.64c.31.44.53.94.63,1.47-3.22,2.19-3.57,7.06-2.46,10.46-.88,1.46-.92,3.67-.16,5.19.09.17.3.24.47.15.17-.09.24-.3.15-.47-.85-1.67-.59-4.51,1.16-5.53.77-.45,1.44-.34,2.25-.18.03.21.05.43.05.68,0,.19.16.35.35.35s.35-.16.35-.35c0-.24-.01-.46-.04-.67.83-.15,1.52-.3,2.31.15,2.22,1.27,2.23,5.59,0,6.83-.61.34-1.4.44-2.07.19-.38-.12-.78-.12-1.16,0-.74.24-1.52.13-2.19-.31-.16-.11-.38-.06-.49.1-.11.16-.06.38.1.49.84.55,1.85.7,2.79.39.24-.08.49-.08.73,0,.87.29,1.82.2,2.62-.24.27-.15.53-.34.75-.57.82.64,1.82.98,2.86.98,1.18,0,2.26-.44,3.08-1.17,2.27-.44,4.33-1.54,5.97-3.18,2.19-2.19,3.4-5.11,3.4-8.21Zm-20.89-6.95l-.46-.64c-.03-.08,0-.12.09-.11.53.24,1.07.46,1.58.73.11.06.24.06.35,0,.11-.06.17-.18.17-.3,0-1.2-.03-2.2-.8-3.21,1.14.52,2.21,1.15,2.21,2.59,0,.19.16.35.35.35s.35-.16.35-.35c0-1.44,1.07-2.07,2.21-2.59-.77,1.02-.8,2.01-.8,3.21,0,.12.06.24.17.3.11.06.24.07.35,0,.51-.27,1.05-.49,1.58-.73.08,0,.11.03.09.11l-.46.64c-.32.45-.55.95-.69,1.48-.85-.43-1.79-.66-2.75-.66-.98,0-1.96.23-2.83.68-.13-.54-.37-1.05-.69-1.5Zm6.03,17.99c1.15-1.67,1.1-4.52-.2-6.11.72-.64,1.64-.98,2.61-.98,2.18,0,3.96,1.77,3.96,3.96s-1.77,3.96-3.96,3.96c-.88,0-1.72-.29-2.41-.82Zm6.29-.56c.28-.43.5-.9.63-1.41,1.22-.49,2.31-1.21,3.25-2.15,1.37-1.37,2.3-3.1,2.67-4.99.04-.19-.09-.38-.28-.41-.19-.04-.38.09-.41.28-.35,1.76-1.21,3.36-2.48,4.63-.77.77-1.65,1.38-2.62,1.83.19-2.66-1.98-5-4.65-5-1.14,0-2.21.4-3.05,1.14l10.56-10.56c1.59,1.71,2.44,3.92,2.42,6.27,0,.19.15.35.35.36.19,0,.35-.15.35-.35.03-2.54-.9-4.93-2.62-6.77l.8-.8c1.91,2.03,2.95,4.67,2.95,7.47s-1.14,5.66-3.2,7.72c-1.31,1.31-2.92,2.26-4.68,2.77Z"/>
      <path d="m34.8,33.28c-.14-.14-.36-.14-.5,0-.14.14-.14.36,0,.5l.53.53c.07.07.16.1.25.1s.18-.03.25-.1c.14-.14.14-.36,0-.5l-.53-.53Z"/>
      <path d="m36.7,31.57l-.68-.3c-.18-.08-.38,0-.46.18-.08.18,0,.38.18.46l.68.3s.1.03.14.03c.13,0,.26-.08.32-.21.08-.18,0-.38-.18-.46Z"/>
      <path d="m37.15,28.97l-.74-.04s-.01,0-.02,0c-.19,0-.34.15-.35.33,0,.19.14.36.33.37l.74.04s.01,0,.02,0c.19,0,.34-.15.35-.33,0-.19-.14-.36-.33-.37Z"/>
      <path d="m36.03,27.29s.07,0,.11-.02l.7-.24c.18-.06.28-.26.22-.44-.06-.18-.26-.28-.44-.22l-.7.24c-.18.06-.28.26-.22.44.05.15.19.24.33.24Z"/>
      <path d="m24.59,28.22c.09,0,.18-.03.25-.1l.77-.77c.14-.14.14-.36,0-.5-.14-.14-.36-.14-.5,0l-.53.53-.53-.53c-.14-.14-.36-.14-.5,0-.14.14-.14.36,0,.5l.77.77c.07.07.16.1.25.1Z"/>
      <path d="m27.75,28.22c.09,0,.18-.03.25-.1l.77-.77c.14-.14.14-.36,0-.5-.14-.14-.36-.14-.5,0l-.53.53-.53-.53c-.14-.14-.36-.14-.5,0-.14.14-.14.36,0,.5l.77.77c.07.07.16.1.25.1Z"/>
      <path d="m23.51,29.07l-.53.53-.53-.53c-.14-.14-.36-.14-.5,0-.14.14-.14.36,0,.5l.77.77c.07.07.16.1.25.1s.18-.04.25-.1l.77-.77c.14-.14.14-.36,0-.5-.14-.14-.36-.14-.5,0Z"/>
      <path d="m25.91,30.34c.07.07.16.1.25.1s.18-.04.25-.1l.77-.77c.14-.14.14-.36,0-.5-.14-.14-.36-.14-.5,0l-.53.53-.53-.53c-.14-.14-.36-.14-.5,0-.14.14-.14.36,0,.5l.77.77Z"/>
      <path d="m30.33,35.14c.19,0,.35-.16.35-.35s-.16-.35-.35-.35-.35.16-.35.35.16.35.35.35Z"/>
    </g>
  </g>
</svg>