<?xml version="1.0" encoding="UTF-8"?>
<svg id="Layer_1" data-name="Layer 1" xmlns="http://www.w3.org/2000/svg" xmlns:xlink="http://www.w3.org/1999/xlink" viewBox="0 0 60 60">
  <defs>
    <style>
      .cls-1 {
        fill: rgba(19, 19, 19, .1);
      }

      .cls-2 {
        clip-path: url(#clippath);
      }

      .cls-3 {
        fill: none;
      }
    </style>
    <clipPath id="clippath">
      <rect class="cls-3" x="18" y="18" width="24" height="24"/>
    </clipPath>
  </defs>
  <circle class="cls-1" cx="30" cy="30" r="30"/>
  <g class="cls-2">
    <g>
      <path d="m34.53,31.66h-12.37l10.71-6.81s.06-.05.08-.08c.02-.03.04-.06.04-.1,0-.04,0-.07,0-.11,0-.04-.02-.07-.04-.1l-1.06-1.67c-.24-.38-.62-.65-1.06-.75-.44-.1-.9-.02-1.28.22l-1.51.96.12-.57c.05-.21.05-.42.02-.63-.04-.21-.11-.41-.23-.59-.11-.18-.26-.33-.43-.46-.17-.12-.37-.21-.58-.25-.21-.05-.42-.05-.63-.01-.21.04-.41.11-.59.23-.18.11-.33.26-.45.44-.12.17-.21.37-.25.58l-.78,3.52-2.62-.58c-.39-.09-.8-.03-1.15.17-.35.2-.61.52-.73.9-.12.38-.1.79.07,1.16.17.36.46.65.83.81l-1.62,1.03c-.38.24-.65.62-.75,1.06-.1.44-.02.9.22,1.28l1.06,1.67s.05.06.08.08c.03.02.06.04.1.04.04,0,.07,0,.11,0,.04,0,.07-.02.1-.04l.99-.63v7.12c0,.45.18.88.5,1.2.32.32.75.5,1.2.5h10.48c.45,0,.88-.18,1.2-.5.32-.32.5-.75.5-1.2v-7.62s0-.07-.02-.11c-.01-.03-.03-.07-.06-.09-.03-.03-.06-.05-.09-.06-.03-.01-.07-.02-.11-.02Zm-4.68-8.92c.18-.12.39-.18.61-.18.08,0,.17,0,.25.03.15.03.28.09.41.18.12.09.23.19.31.32l.91,1.43-4.43,2.82-1.52-2.39,3.47-2.21Zm-4.28-.66c.06-.27.23-.51.46-.65.23-.15.52-.2.79-.14.27.06.51.23.65.46.15.23.2.52.14.79l-.23,1.1-2.52,1.61.71-3.17Zm.34,3.17l1.52,2.39-2.57,1.63-1.52-2.39,2.57-1.63Zm-5.52,1.77c-.11-.17-.17-.38-.16-.58,0-.21.07-.41.19-.58.12-.17.29-.3.48-.37.19-.07.4-.09.61-.05l2.27.51-2.52,1.58-.2-.05c-.13-.03-.26-.09-.37-.16-.11-.08-.21-.18-.28-.3Zm-.5,5.42l-.91-1.43c-.16-.25-.22-.56-.15-.86.07-.29.24-.55.5-.71l3.55-2.26,1.52,2.39-4.51,2.86Zm5.45,8.25h-2.7c-.3,0-.59-.12-.8-.33-.21-.21-.33-.5-.33-.8v-7.34h3.84v8.47Zm3.57,0h-3.01v-8.47h3.01v8.47Zm5.34-1.14c0,.3-.12.59-.33.8-.21.21-.5.33-.8.33h-3.64v-8.47h4.78v7.34Z"/>
      <path d="m37.68,29.11l.13-.78c0-.05,0-.1-.02-.15-.02-.05-.05-.09-.1-.12-.04-.03-.09-.05-.15-.05-.05,0-.1,0-.15.03l-.7.37-.7-.37s-.1-.04-.15-.03c-.05,0-.1.02-.15.05-.04.03-.08.07-.1.12-.02.05-.03.1-.02.15l.13.78-.57.56s-.06.08-.08.13c-.01.05-.01.1,0,.15.02.05.05.09.09.13.04.03.09.06.14.06l.79.11.35.71s.06.09.1.11c.04.03.1.04.15.04s.1-.01.15-.04c.04-.03.08-.07.1-.11l.35-.71.79-.11c.05,0,.1-.03.14-.06.04-.03.07-.08.09-.13.02-.05.02-.1,0-.15-.01-.05-.04-.1-.08-.13l-.57-.56Zm-.6.61s-.09.02-.12.05c-.04.03-.07.06-.09.1l-.17.34-.17-.34s-.05-.08-.09-.1c-.04-.03-.08-.04-.12-.05l-.37-.05.27-.26s.06-.07.07-.11c.01-.04.02-.09,0-.13l-.06-.37.33.17s.09.03.13.03.09-.01.13-.03l.33-.17-.06.37s0,.09,0,.13c.01.04.04.08.07.11l.27.26-.37.05Z"/>
      <path d="m40.91,25.23l-.77-.19-.28-.74s-.05-.09-.09-.12c-.04-.03-.09-.05-.14-.06-.05,0-.1,0-.15.03-.05.02-.09.06-.11.1l-.42.68-.79.04c-.05,0-.1.02-.15.05-.04.03-.08.07-.1.12-.02.05-.03.1-.02.15s.03.1.06.14l.52.61-.21.77c-.01.05-.01.1,0,.15.02.05.04.1.08.13.04.03.09.06.14.07.05,0,.11,0,.15-.02l.74-.3.67.43s.1.04.15.05c.05,0,.1-.01.15-.04s.08-.07.11-.11c.02-.05.03-.1.03-.15l-.06-.79.62-.5s.07-.08.09-.13c.02-.05.02-.1,0-.15-.01-.05-.04-.1-.07-.14-.04-.04-.08-.06-.13-.08Zm-.98.65s-.06.07-.08.11-.03.09-.02.13l.03.37-.31-.2s-.08-.04-.13-.04c-.05,0-.09,0-.13.02l-.35.14.1-.36s.01-.09,0-.13c-.01-.04-.03-.09-.06-.12l-.24-.28.37-.02s.09-.02.13-.04c.04-.02.07-.06.1-.09l.2-.32.13.35s.04.08.08.11c.03.03.08.05.12.06l.36.09-.29.23Z"/>
      <path d="m36.78,20.66l-.21.77c-.01.05-.01.1,0,.15.02.05.04.1.08.13s.09.06.14.07c.05,0,.1,0,.15-.02l.74-.3.67.43s.1.04.15.05c.05,0,.1-.01.15-.04.05-.03.08-.07.11-.11.02-.05.03-.1.03-.15l-.06-.79.62-.5s.07-.08.09-.13.02-.1,0-.15c-.01-.05-.04-.1-.07-.14-.04-.04-.08-.06-.13-.08l-.77-.19-.28-.74s-.05-.09-.09-.12c-.04-.03-.09-.05-.14-.06-.05,0-.1,0-.15.03-.05.02-.09.06-.11.1l-.42.68-.79.04c-.05,0-.1.02-.15.05-.04.03-.08.07-.1.12-.02.05-.03.1-.02.15,0,.05.03.1.06.14l.52.61Zm.66-.56s.09-.02.13-.04c.04-.02.07-.06.1-.09l.2-.32.13.35s.04.08.08.11.08.05.12.06l.36.09-.29.23s-.06.07-.08.11c-.02.04-.03.09-.02.13l.03.37-.31-.2s-.08-.04-.13-.04c-.05,0-.09,0-.13.02l-.35.14.1-.36s.01-.09,0-.13c0-.04-.03-.09-.06-.12l-.24-.29.37-.02Z"/>
      <path d="m31.68,29.15c-.64.4-.95.88-.96.9-.04.06-.05.14-.04.21.02.07.06.14.12.18.06.04.14.05.21.04.07-.02.14-.06.18-.12.04-.07,1.06-1.6,3.27-1.06.07.02.15,0,.21-.03.06-.04.11-.1.13-.17.02-.07,0-.15-.03-.21-.04-.06-.1-.11-.17-.13-1.36-.34-2.34.03-2.93.4Z"/>
      <path d="m37.01,26.17c.07.03.15.03.22,0,.07-.03.12-.08.15-.15s.03-.15,0-.22c-.03-.07-.08-.12-.15-.15-2-.83-3.46-.21-4.33.46-.58.45-1.05,1.01-1.4,1.65-.02.03-.03.07-.03.11,0,.04,0,.07.01.11.01.04.03.07.05.1.02.03.05.05.09.07.03.02.07.03.11.03.04,0,.07,0,.11-.01s.07-.03.1-.05c.03-.02.05-.05.07-.09.31-.56.73-1.06,1.24-1.46,1.09-.84,2.36-.97,3.77-.39Z"/>
      <path d="m33.85,24.09c-.02.07-.02.15.02.21.03.07.09.12.16.14.39.11.79.17,1.19.17.47,0,1.01-.08,1.5-.37.64-.38,1.05-1.02,1.22-1.91,0-.04,0-.07,0-.11,0-.04-.02-.07-.04-.1-.02-.03-.05-.06-.08-.08-.03-.02-.07-.03-.1-.04-.04,0-.07,0-.11,0-.04,0-.07.02-.1.04-.03.02-.06.05-.08.08-.02.03-.03.07-.04.1-.14.72-.46,1.24-.95,1.53-.93.56-2.22.16-2.24.15-.07-.02-.15-.02-.21.02-.07.03-.12.09-.14.16Z"/>
      <path d="m30.13,31.35c.1,0,.2-.03.28-.09.08-.06.15-.13.19-.23.04-.09.05-.19.03-.29-.02-.1-.07-.19-.14-.26-.07-.07-.16-.12-.26-.14-.1-.02-.2,0-.29.03-.09.04-.17.1-.23.19-.06.08-.09.18-.09.28,0,.13.05.26.15.36s.22.15.36.15Zm0-.56s.02,0,.03,0c0,0,.02.01.02.03,0,.01,0,.02,0,.03,0,.01,0,.02-.02.03,0,0-.02.01-.03.02-.01,0-.02,0-.03,0-.01,0-.02-.01-.03-.02,0,0,0-.02,0-.03,0-.01,0-.03.02-.04s.02-.02.04-.02Z"/>
      <path d="m34.12,22.17c.1,0,.2-.03.28-.09.08-.06.15-.13.19-.23.04-.09.05-.19.03-.29-.02-.1-.07-.19-.14-.26-.07-.07-.16-.12-.26-.14-.1-.02-.2,0-.29.03-.09.04-.17.1-.23.19-.06.08-.09.18-.09.28,0,.13.05.26.15.36.09.09.22.15.36.15Zm0-.56s.02,0,.03,0c0,0,.02.01.02.03,0,.01,0,.02,0,.03,0,.01,0,.02-.02.03,0,0-.02.01-.03.02-.01,0-.02,0-.03,0-.01,0-.02-.01-.03-.02,0,0,0-.02,0-.03,0-.01,0-.03.02-.04s.02-.02.04-.02Z"/>
      <path d="m41.26,21.78c-.1,0-.2.03-.28.09-.08.06-.15.13-.19.23-.04.09-.05.19-.03.29.02.1.07.19.14.26.07.07.16.12.26.14.1.02.2,0,.29-.03.09-.04.17-.1.23-.19.06-.08.09-.18.09-.28,0-.13-.05-.26-.15-.36-.09-.09-.22-.15-.36-.15Zm0,.56s-.02,0-.03,0c0,0-.02-.01-.02-.03,0-.01,0-.02,0-.03,0-.01,0-.02.02-.03,0,0,.02-.01.03-.02.01,0,.02,0,.03,0,.01,0,.02.01.03.02,0,0,0,.02,0,.03,0,.01,0,.03-.02.04-.01.01-.02.02-.04.02Z"/>
      <path d="m29.93,28.5c0-.1-.03-.2-.09-.28-.06-.08-.13-.15-.23-.19-.09-.04-.19-.05-.29-.03-.1.02-.19.07-.26.14-.07.07-.12.16-.14.26-.02.1,0,.2.03.29.04.09.1.17.19.23.08.06.18.09.28.09.13,0,.26-.05.36-.15.09-.09.15-.22.15-.36Zm-.51.06s-.02,0-.03,0c0,0-.02-.01-.02-.03,0-.01,0-.02,0-.03,0-.01,0-.02.02-.03,0,0,.02-.01.03-.02.01,0,.02,0,.03,0,.01,0,.02.01.03.02,0,0,0,.02,0,.03,0,.01,0,.03-.02.04-.01.01-.02.02-.04.02h0Z"/>
      <path d="m40.42,28.82c-.1,0-.2.03-.28.09-.08.06-.15.13-.19.23-.04.09-.05.19-.03.29.02.1.07.19.14.26.07.07.16.12.26.14.1.02.2,0,.29-.03.09-.04.17-.1.23-.19.06-.08.09-.18.09-.28,0-.13-.05-.26-.15-.36-.1-.09-.22-.15-.36-.15Zm0,.56s-.02,0-.03,0c0,0-.02-.01-.02-.03,0-.01,0-.02,0-.03,0-.01,0-.02.02-.03s.02-.01.03-.02c.01,0,.02,0,.03,0,.01,0,.02.01.03.02,0,0,0,.02,0,.03,0,.01,0,.03-.02.04-.01.01-.02.02-.04.02Z"/>
    </g>
  </g>
</svg>