<?xml version="1.0" encoding="UTF-8"?>
<svg id="Layer_1" data-name="Layer 1" xmlns="http://www.w3.org/2000/svg" viewBox="0 0 60 60">
  <defs>
    <style>
      .cls-1 {
        fill: rgba(19, 19, 19, .1);
      }
    </style>
  </defs>
  <circle class="cls-1" cx="30" cy="30" r="30"/>
  <path d="m24.22,29.87c0,.42.17.82.47,1.12.3.3.7.47,1.12.47-.11.18-.17.39-.17.61v.22c0,.27.09.53.26.73.17.21.4.35.66.41l1.8,5.5c.07.2.2.38.37.51s.38.19.6.19h1.37c.21,0,.42-.07.6-.19.17-.12.3-.3.37-.51l1.8-5.5c.26-.06.49-.2.66-.41.17-.21.26-.47.26-.73v-.22c0-.21-.06-.42-.17-.61.42,0,.83-.17,1.12-.47.3-.3.47-.7.47-1.12v-.09c0-.27-.08-.53-.23-.75-.15-.22-.36-.39-.61-.49.21-.32.33-.68.35-1.05.03-.38-.04-.75-.2-1.09-.22-.47-.6-.85-1.08-1.07.06-.27.09-.56.09-.84,0-1.09-.43-2.13-1.2-2.9-.77-.77-1.81-1.2-2.9-1.2s-2.13.43-2.9,1.2c-.77.77-1.2,1.81-1.2,2.9,0,.28.03.56.09.84-.29.13-.54.33-.75.57-.21.24-.36.52-.45.83-.09.3-.11.62-.06.94.05.31.16.61.33.88-.25.1-.46.27-.61.49-.15.22-.23.48-.23.74v.09Zm6.89,8.87c-.03.09-.09.17-.16.22-.08.05-.17.08-.26.08h-1.37c-.09,0-.18-.03-.26-.08s-.13-.13-.16-.22l-1.73-5.28h5.67l-1.73,5.28Zm2.69-6.46c0,.15-.06.3-.16.41-.11.11-.25.18-.41.18,0,0,0,0-.01,0h0s-.02,0-.03,0h-6.35s-.02,0-.03,0h0s0,0-.01,0c-.15,0-.3-.07-.41-.18-.11-.11-.17-.26-.16-.42v-.22c0-.08.02-.16.05-.24s.08-.14.14-.2c.11-.1.26-.16.41-.16h6.38c.08,0,.15.01.22.04s.13.07.19.12c.06.06.11.12.14.2.03.08.05.16.05.24v.22Zm-3.79-11.32c.94,0,1.83.37,2.49,1.04.66.66,1.03,1.56,1.03,2.5,0,.22-.02.44-.06.66-.01,0-.03,0-.04,0-.02,0-.03,0-.05,0-.1-.01-.19-.02-.29-.02-.04,0-.08,0-.12,0-.41.02-.8.15-1.13.39-.24.16-.45.37-.61.62-.36-.24-.79-.37-1.23-.37s-.86.13-1.23.37c-.2-.31-.48-.56-.8-.74-.32-.18-.69-.27-1.05-.28-.09,0-.19,0-.28.02-.02,0-.04,0-.05,0-.02,0-.03,0-.04,0-.04-.22-.07-.44-.07-.66,0-.94.37-1.83,1.04-2.5.66-.66,1.56-1.03,2.5-1.04Zm-3.59,4.82s.02,0,.03-.01l-.08-.27.11.26h0c.23-.06.48-.07.71-.03.24.04.46.13.66.27.25.17.45.41.57.69.02.04.05.08.08.11.04.03.08.05.12.06.05,0,.09,0,.14,0,.04-.01.09-.04.12-.07.3-.28.71-.44,1.12-.44s.82.16,1.12.44c.02.02.05.04.08.05,0,0,.01,0,.02,0,.03.01.06.02.09.02h0c.06,0,.11-.02.16-.05.05-.03.08-.08.11-.13.12-.28.32-.53.58-.7.25-.18.54-.28.85-.28.02,0,.04,0,.05,0h.02c.15,0,.29.02.43.05h.03s.03.02.04.02c.21.07.41.18.58.33.17.15.31.33.4.53.1.22.16.46.16.7,0,.34-.1.67-.3.95-.2.28-.47.48-.79.6-.17.07-.36.1-.54.1-.4,0-.78-.14-1.08-.41-.02-.02-.04-.03-.06-.05-.06-.05-.14-.07-.22-.05-.05,0-.09.02-.13.05-.04.03-.07.06-.09.1,0,0-.01.02-.02.03-.01.02-.02.03-.03.05-.11.23-.27.43-.48.58-.2.15-.44.26-.69.3,0,0-.02,0-.03,0-.09.02-.18.03-.27.02-.31,0-.61-.09-.87-.25-.26-.16-.47-.4-.6-.68,0-.02-.02-.03-.03-.05h0s-.02-.04-.02-.05c-.02-.04-.05-.07-.08-.09s-.07-.04-.11-.05c-.04,0-.08,0-.12,0-.04.01-.08.03-.11.06-.02.01-.04.03-.05.05-.29.27-.68.42-1.07.41-.39,0-.77-.14-1.07-.39-.3-.25-.49-.61-.56-.99-.06-.39.02-.78.22-1.11.21-.33.52-.58.9-.7h0Zm-1.62,4c0-.19.07-.37.19-.51.13-.14.3-.23.49-.24.01.01.02.02.04.03.02.02.05.04.07.05.03.02.06.05.1.07.02.02.05.03.07.05.03.02.07.04.1.06.02.01.05.03.08.04.04.02.07.03.11.05.03.01.05.02.08.03.04.01.07.03.11.04.03,0,.05.02.08.03.04.01.08.02.12.03.03,0,.05.01.08.02.04,0,.09.01.14.02.02,0,.04,0,.07,0,.07,0,.14,0,.21,0,.44,0,.86-.13,1.23-.38.2.31.48.57.8.75.33.18.69.27,1.06.27.14,0,.28-.01.41-.04.29-.06.57-.17.82-.34.25-.17.46-.38.62-.64.36.25.79.38,1.23.38.26,0,.51-.04.75-.14.07-.02.13-.05.2-.08.02,0,.04-.02.06-.03.04-.02.08-.04.13-.07.02-.01.05-.03.07-.04.04-.02.07-.05.11-.08.02-.02.04-.03.07-.05.02-.01.03-.02.05-.04.19.02.36.11.49.24.13.14.2.32.2.51v.09c0,.27-.11.53-.3.72s-.45.3-.72.3h-8.39c-.27,0-.53-.11-.72-.3s-.3-.45-.3-.72v-.09Z"/>
</svg>