<?xml version="1.0" encoding="UTF-8"?>
<svg id="Layer_1" data-name="Layer 1" xmlns="http://www.w3.org/2000/svg" viewBox="0 0 60 60">
  <defs>
    <style>
      .cls-1 {
        fill: rgba(19, 19, 19, .1);
      }
    </style>
  </defs>
  <circle class="cls-1" cx="30" cy="30" r="30"/>
  <g>
    <path d="m25.26,27.8h-.75c-.09,0-.17-.03-.23-.09-.06-.06-.09-.14-.09-.23s.03-.17.09-.23c.06-.06.14-.1.23-.1h.75c.29,0,.57-.08.82-.22.25-.14.46-.34.61-.59l.86-1.41c1.14-1.87,1.63-3.5,1.63-5.44,0-.23.09-.44.25-.6.16-.16.38-.25.6-.25h.21c.88,0,1.73.35,2.35.98.62.62.98,1.47.98,2.35,0,1.66-.37,3.29-1.08,4.79l-.2.45c-.04.08-.1.14-.18.16-.08.03-.17.03-.24,0-.08-.03-.14-.1-.17-.17-.03-.08-.03-.17,0-.24l.2-.45c.68-1.42,1.03-2.96,1.02-4.53,0-.71-.28-1.39-.79-1.9-.5-.5-1.18-.79-1.9-.79h-.21c-.05,0-.11.02-.14.06-.04.04-.06.09-.06.14,0,2.04-.53,3.82-1.73,5.78l-.86,1.41c-.21.34-.5.62-.85.81-.35.19-.74.3-1.14.3Z"/>
    <path d="m34.91,30.66c-.09,0-.17-.03-.23-.1-.06-.06-.09-.14-.09-.23s.03-.17.09-.23c.06-.06.14-.09.23-.09h3.19c.34,0,.67-.14.92-.38.24-.24.38-.57.38-.92s-.14-.67-.38-.92c-.24-.24-.57-.38-.92-.38h-6.1c-.09,0-.17-.03-.23-.09-.06-.06-.09-.14-.09-.23s.03-.17.09-.23c.06-.06.14-.09.23-.09h6.09c.52,0,1.01.21,1.38.57.36.36.57.86.57,1.38s-.2,1.01-.57,1.38c-.36.36-.86.57-1.38.57h-3.19,0Z"/>
    <path d="m38.74,33.91h-4.56c-.09,0-.17-.03-.23-.1s-.1-.14-.1-.23.03-.17.1-.23c.06-.06.14-.09.23-.09h4.56c.34,0,.67-.14.92-.38.24-.24.38-.57.38-.92s-.14-.67-.38-.92c-.24-.24-.57-.38-.92-.38h-3.83c-.09,0-.17-.03-.23-.09-.06-.06-.09-.14-.09-.23s.03-.17.09-.23c.06-.06.14-.1.23-.1h3.83c.52,0,1.01.21,1.38.57.36.36.57.86.57,1.38s-.2,1.01-.57,1.38c-.36.36-.86.57-1.38.57Z"/>
    <path d="m38.09,37.15h-4.64c-.09,0-.17-.03-.23-.1-.06-.06-.09-.14-.09-.23s.03-.17.09-.23c.06-.06.14-.09.23-.09h4.64c.34,0,.67-.14.92-.38.24-.24.38-.57.38-.92s-.14-.67-.38-.92c-.24-.24-.57-.38-.92-.38h-3.91c-.09,0-.17-.03-.23-.1-.06-.06-.1-.14-.1-.23s.03-.17.1-.23c.06-.06.14-.1.23-.1h3.91c.52,0,1.01.2,1.38.57.36.36.57.86.57,1.38s-.21,1.01-.57,1.38c-.36.37-.86.57-1.38.57Z"/>
    <path d="m36.8,40.39h-9.06c-1.23,0-2.43-.38-3.43-1.09-.04-.02-.07-.06-.09-.09s-.04-.08-.05-.12c0-.04,0-.09,0-.13,0-.04.03-.08.05-.12.03-.04.06-.07.09-.09.04-.02.08-.04.12-.04.04,0,.09,0,.13,0,.04.01.08.03.12.06.89.63,1.96.97,3.05.97h9.06c.34,0,.67-.14.92-.38s.38-.57.38-.92-.14-.67-.38-.92c-.24-.24-.57-.38-.92-.38h-3.34c-.09,0-.17-.03-.23-.09-.06-.06-.1-.14-.1-.23s.03-.17.1-.23c.06-.06.14-.1.23-.1h3.34c.52,0,1.01.21,1.38.57.36.36.57.86.57,1.38s-.2,1.01-.57,1.38c-.36.36-.86.57-1.38.57h0Z"/>
    <path d="m23.64,41.35h-3.27c-.28,0-.55-.11-.74-.31-.2-.2-.31-.46-.31-.74v-13.85c0-.28.11-.55.31-.74.2-.2.46-.31.74-.31h3.27c.28,0,.55.11.74.31.2.2.31.46.31.74v13.85c0,.28-.11.55-.31.74-.2.2-.46.31-.74.31Zm-3.27-15.31c-.11,0-.21.04-.28.12-.08.08-.12.18-.12.28v13.85c0,.11.04.21.12.28.08.08.18.12.28.12h3.27c.11,0,.21-.04.28-.12.08-.08.12-.18.12-.28v-13.85c0-.11-.04-.21-.12-.28-.08-.08-.18-.12-.28-.12h-3.27Z"/>
  </g>
</svg>