<?xml version="1.0" encoding="UTF-8"?>
<svg id="Layer_1" data-name="Layer 1" xmlns="http://www.w3.org/2000/svg" viewBox="0 0 60 60">
  <defs>
    <style>
      .cls-1 {
        fill: rgba(19, 19, 19, .1);
      }
    </style>
  </defs>
  <circle class="cls-1" cx="30" cy="30" r="30"/>
  <path d="m36.89,27.98c.2-.66.31-1.34.31-2,0-2.57-1.97-4.66-4.4-4.66-1.65,0-3.17.9-4,2.31-.83-1.41-2.35-2.31-4-2.31-2.43,0-4.4,2.09-4.4,4.66,0,5.86,7.88,10.13,8.21,10.31.06.03.12.05.19.05s.13-.02.19-.05c.01,0,.3-.16.76-.44,1.6,1.68,3.53,2.73,3.67,2.8.06.03.12.05.19.05s.13-.02.19-.05c.24-.12,5.81-3.15,5.81-7.32,0-1.69-1.18-3.09-2.71-3.34Zm-8.09,7.5c-1.19-.68-7.6-4.59-7.6-9.5,0-2.13,1.62-3.86,3.6-3.86,1.34,0,2.98.8,3.62,2.58.06.16.21.26.38.26s.32-.1.38-.26c.64-1.78,2.28-2.58,3.62-2.58,1.98,0,3.6,1.73,3.6,3.86,0,.66-.12,1.32-.35,1.98-1,.1-1.9.66-2.45,1.49-.62-.93-1.67-1.51-2.8-1.51-1.76,0-3.2,1.52-3.2,3.39,0,1.48.7,2.8,1.6,3.91-.16.1-.3.18-.4.24Zm4.8,2.36c-.96-.56-5.2-3.21-5.2-6.51,0-1.43,1.08-2.59,2.4-2.59.9,0,1.99.53,2.42,1.73.06.16.21.26.38.26s.32-.1.38-.26c.43-1.19,1.53-1.73,2.42-1.73,1.32,0,2.4,1.16,2.4,2.59,0,3.3-4.24,5.95-5.2,6.51Z"/>
</svg>